<?xml version="1.0" standalone="no"?><svg xmlns="http://www.w3.org/2000/svg" viewBox="0 0 1440 320"><path fill="#8DC63f" fill-opacity="1" d="M0,128L24,154.7C48,181,96,235,144,256C192,277,240,267,288,245.3C336,224,384,192,432,170.7C480,149,528,139,576,149.3C624,160,672,192,720,186.7C768,181,816,139,864,117.3C912,96,960,96,1008,128C1056,160,1104,224,1152,240C1200,256,1248,224,1296,218.7C1344,213,1392,235,1416,245.3L1440,256L1440,320L1416,320C1392,320,1344,320,1296,320C1248,320,1200,320,1152,320C1104,320,1056,320,1008,320C960,320,912,320,864,320C816,320,768,320,720,320C672,320,624,320,576,320C528,320,480,320,432,320C384,320,336,320,288,320C240,320,192,320,144,320C96,320,48,320,24,320L0,320Z"></path></svg>